<?xml version="1.0" encoding="UTF-8" standalone="no"?>
<!DOCTYPE svg PUBLIC "-//W3C//DTD SVG 1.1//EN" "http://www.w3.org/Graphics/SVG/1.1/DTD/svg11.dtd">
<svg width="100%" height="100%" viewBox="0 0 73 80" version="1.1" xmlns="http://www.w3.org/2000/svg" xmlns:xlink="http://www.w3.org/1999/xlink" xml:space="preserve" xmlns:serif="http://www.serif.com/" style="fill-rule:evenodd;clip-rule:evenodd;stroke-linejoin:round;stroke-miterlimit:2;">
    <g transform="matrix(1,0,0,1,-233.618697,-18.790751)">
        <g transform="matrix(1,0,0,1,-39.703895,0)">
            <g id="Screenshot-2026-04-14-011250.png" serif:id="Screenshot 2026-04-14 011250.png" transform="matrix(1,0,0,1,246.703895,2)">
                <path d="M98.385,39.614C98.475,40.067 98.677,39.97 98.768,40.428C98.784,40.511 98.769,40.507 98.757,41.487C98.728,43.916 98.731,43.911 98.731,63.5C98.731,77.067 98.958,77.463 97.464,78.452C94.984,80.095 82.881,86.956 81.604,87.68C66.168,96.43 65.828,97.615 64.758,96.312C64.488,95.984 64.525,93.726 64.529,93.5C64.534,93.156 64.533,89.305 64.533,64.5C64.533,59.607 63.892,58.306 67.453,56.419C67.51,56.389 92.127,42.205 93.442,41.385C94.622,40.682 94.611,40.702 95.778,39.995C97.843,38.743 98.094,39.609 98.385,39.614Z" style="fill:rgb(0,89,59);"/>
                <path d="M84.05,34.043C84.525,33.923 86.571,32.883 86.89,32.827C88.83,32.487 89.856,33.203 91.638,34.346C94.449,36.15 97.361,38.518 97.642,38.962C97.818,39.241 98.209,39.335 98.385,39.614C98.094,39.609 97.843,38.743 95.778,39.995C94.611,40.702 95.142,40.422 93.962,41.125C93.542,40.766 89.639,37.905 89.518,37.838C88.996,37.55 88.518,37.285 82.688,40.825C78.869,43.144 70.286,47.879 59.391,54.343C59.191,54.787 58.992,55.231 58.793,55.676C58.619,64.728 58.864,92.063 58.677,92.582C58.037,94.367 55.869,92.457 55.689,92.298C55.473,92.108 55.23,91.927 55.096,91.672C54.802,91.111 54.12,90.163 53.743,89.579C53.741,86.773 53.715,56.939 53.748,54.501C53.795,50.984 54.815,51.271 60.661,47.778C65.945,44.622 80.21,36.81 84.05,34.043Z" style="fill:rgb(203,214,221);"/>
                <path d="M69.548,25.486C69.955,25.451 70.9,24.934 72.895,24.563C74.979,24.175 76.914,25.858 77.655,26.348C79.26,27.408 83.249,30.486 83.522,30.902C82.955,31.087 82.921,30.942 82.413,31.262C82.199,31.398 82.19,31.377 79.646,32.805C79.474,32.688 77.5,31.335 77.5,31.335C77.244,31.21 75.521,28.346 71.633,30.727C68.25,32.799 47.066,44.685 44.537,46.55C43.883,54.32 44.561,83.789 44.231,84.385C43.679,85.379 43.417,85.291 42.402,84.777C41.296,84.216 40.54,83.632 40.389,83.516C39.617,82.921 39.787,82.759 39.027,82.172C39.133,81.701 39.397,81.77 39.407,80.493C39.416,79.27 39.249,45.654 39.507,44.501C39.878,42.842 41.46,42.556 47.674,38.803C50.347,37.189 64.785,28.962 66.276,28.112C68.436,26.881 67.548,26.933 69.548,25.486Z" style="fill:rgb(205,214,221);"/>
                <path d="M69.548,22.733C68.967,23.003 68.957,22.936 68.395,23.269C68.178,23.397 68.191,23.382 65.646,24.802C64.917,24.494 62.831,22.941 62.482,22.537C62.364,22.4 61.514,21.417 60.493,21.463C59.34,21.515 49.907,27.347 47.556,28.597C46.096,29.374 34.711,36.014 33.597,36.664C33.35,36.808 30.796,38.297 30.678,38.728C30.596,39.026 30.844,39.328 30.87,39.637C31.018,41.379 30.815,41.37 30.815,61.5C30.815,76.477 30.927,76.705 30.25,77.084C29.338,77.595 29.301,77.219 28.402,76.692C26.582,75.624 26.65,74.236 26.63,73.496C26.614,72.88 26.617,40.133 26.628,39.499C26.711,34.605 28.888,34.485 29.339,34.229C30.462,33.592 39.352,28.55 43.315,26.175C46.344,24.36 54.259,19.869 55.338,19.221C59.26,16.862 60.372,15.925 63.324,17.752C68.945,21.231 68.824,21.461 69.11,21.957C69.336,22.351 69.321,22.34 69.548,22.733Z" style="fill:rgb(210,216,221);"/>
                <path d="M83.522,30.902C83.773,31.363 83.963,31.183 84.212,31.639C84.245,31.701 84.369,31.928 84.391,32.497C84.391,32.497 84.077,33.92 84.05,34.043C80.21,36.81 65.945,44.622 60.661,47.778C54.815,51.271 53.795,50.984 53.748,54.501C53.715,56.939 53.741,86.773 53.743,89.579C53.513,89.747 53.53,90.142 53.299,90.309C52.706,90.74 51.268,90.158 50.686,89.354C50.052,88.479 50.132,88.364 50.132,62.5C50.132,50.823 49.815,50.13 51.773,48.939C53.975,47.601 54.021,47.684 79.646,32.805C82.19,31.377 82.199,31.398 82.413,31.262C82.921,30.942 82.955,31.087 83.522,30.902Z" style="fill:rgb(0,89,59);"/>
                <path d="M68.915,22.813C69.478,22.48 70.252,22.872 70.621,23.439C70.67,23.514 70.822,23.747 70.734,24.554C70.7,24.861 70.439,25.114 70.405,25.421C68.406,26.868 68.436,26.881 66.276,28.112C64.785,28.962 50.347,37.189 47.674,38.803C41.46,42.556 39.878,42.842 39.507,44.501C39.249,45.654 39.416,79.27 39.407,80.493C39.397,81.77 39.133,81.701 39.027,82.172C38.343,82.033 37.591,82.14 37.286,81.819C36.743,81.246 36.722,81.25 36.55,80.486C36.377,79.714 36.211,44.017 36.641,42.543C37.179,40.697 37.846,41.17 65.646,24.802C68.191,23.382 68.699,22.942 68.915,22.813Z" style="fill:rgb(0,89,59);"/>
                <path d="M81.401,80.33C79.641,81.387 77.47,82.525 73.258,85.064C73.125,85.144 71.881,85.894 71.527,85.914C69.142,86.049 70.394,83.682 70.493,83.496C70.948,82.636 75.556,80.365 81.64,76.741C91.689,70.755 91.994,70.619 92.758,71.251C93.184,71.605 93.606,73.257 91.493,74.49C84.055,78.83 82.845,79.469 81.401,80.33Z" style="fill:rgb(203,214,221);"/>
                <path d="M85.596,67.664C87.198,66.687 90.207,64.939 90.609,64.705C92.678,63.503 93.823,64.516 92.714,66.619C92.358,67.296 92.286,67.271 84.59,71.657C71.708,78.999 71.685,79.498 70.735,79.078C69.982,78.745 69.646,77.053 71.64,75.709C73.162,74.683 84.473,68.297 85.596,67.664Z" style="fill:rgb(203,214,221);"/>
                <path d="M72.317,61.201C82.745,55.289 82.651,55.138 83.57,54.648C85.519,53.61 86.172,55.124 85.561,56.527C85.357,56.995 85.247,57.247 80.26,60.077C71.5,65.048 71.459,65.196 70.76,65.003C70.115,64.826 69.957,63.29 70.553,62.535C70.553,62.535 72.176,61.308 72.317,61.201Z" style="fill:rgb(203,214,221);"/>
                <path d="M78.665,67.779C75.962,69.314 74.016,70.466 73.614,70.703C73.451,70.8 71.77,71.795 71.524,71.815C69.21,72.009 70.357,69.658 70.448,69.473C70.922,68.502 74.668,66.818 82.756,61.959C83.111,61.746 84.544,60.991 84.57,60.99C84.727,60.981 85.951,60.914 85.825,62.504C85.713,63.913 83.606,64.943 78.665,67.779Z" style="fill:rgb(203,214,221);"/>
            </g>
        </g>
    </g>
</svg>
